<svg xmlns="http://www.w3.org/2000/svg" width="32" height="32"><path fill="#f0d1a5" d="M25.308 9.363c-1.85-.654-3.506-.765-4.953-.529-.125.014-.25.028-.376.056-.042 0-.083.014-.125.028a6.792 6.792 0 0 0-.807.209 7.26 7.26 0 0 0-.765.264c-.014 0-.014.014-.028.014.32-1.906 1.03-3.979 2.546-5.384a2.34 2.34 0 0 0 .125-3.283 2.311 2.311 0 0 0-3.27-.111 11.04 11.04 0 0 0-1.837 2.212c-1.35 2.115-1.976 4.55-2.24 6.65-.07-.028-.125-.056-.195-.083h-.014a6.378 6.378 0 0 0-.779-.278 6.99 6.99 0 0 0-.807-.209c-.042-.014-.083-.028-.125-.028a3.445 3.445 0 0 0-.376-.056c-1.447-.237-3.103-.125-4.953.529-3.061 1.099-4.911 4.216-4.939 8.348a15.987 15.987 0 0 0 .501 4.063c.167.654.376 1.308.598 1.934.25.64.529 1.266.849 1.864.946 1.809 2.226 3.409 3.854 4.508.083.083.181.139.278.195.223.153.445.278.682.403.334.181.682.334 1.043.473 1.308.473 2.56.64 3.659.64 1.238 0 2.282-.209 2.963-.39 1.294.348 3.868.765 6.623-.25a9.845 9.845 0 0 0 1.043-.473c.237-.125.459-.25.682-.403.097-.056.195-.125.278-.181 1.614-1.113 2.908-2.713 3.854-4.508.32-.612.598-1.238.849-1.878.237-.64.431-1.28.598-1.934.348-1.377.515-2.769.501-4.063-.028-4.132-1.878-7.249-4.939-8.348zm-1.906 15.333c-.723.988-1.6 1.753-2.588 2.115-1.057.39-2.129.39-2.908.292a4.772 4.772 0 0 1-.557-.097c-.056-.014-.097-.028-.125-.028a5.525 5.525 0 0 1-.515-.139c-.028-.014-.056-.014-.056-.014a2.224 2.224 0 0 0-.403-.125 2.238 2.238 0 0 0-.863 0c-.139.028-.264.07-.403.125 0 0-.028.014-.056.014a5.346 5.346 0 0 1-.515.139c-.042.014-.083.014-.125.028-.153.042-.348.07-.557.097-.793.097-1.85.097-2.908-.292-.988-.376-1.864-1.127-2.588-2.115-1.405-1.906-2.24-4.633-2.226-6.943.014-1.016.209-3.437 1.864-4.021.974-.348 1.823-.431 2.532-.348.264.028.515.07.737.139.111.028.223.07.334.111.111.028.209.083.306.125s.195.083.278.153a1 1 0 0 1 .264.153c.167.097.32.209.459.334.042.028.07.056.097.083.097.083.195.181.278.264.334.348.543.668.64.835.39.751 1.155 1.238 2.017 1.238s1.628-.487 2.017-1.238c.097-.167.306-.473.64-.835.083-.083.181-.167.278-.264.028-.028.07-.056.097-.083.139-.111.292-.223.459-.334a1 1 0 0 1 .264-.153c.083-.056.181-.111.278-.153s.209-.083.306-.125a3.11 3.11 0 0 1 .334-.111c.223-.07.473-.111.737-.139.71-.083 1.558 0 2.532.348 1.656.584 1.85 3.005 1.864 4.021.014 2.31-.821 5.037-2.226 6.943z"/></svg>