<svg xmlns="http://www.w3.org/2000/svg" width="32" height="32"><path fill="#c2e297" d="M24.742 10.445a1.08 1.08 0 0 0-.826-.384h-.198c.09-.499.141-.998.134-1.472-.013-1.99-.902-3.494-2.374-4.013-1.408-.506-2.586-.352-3.507.064.147-.973.493-2.061 1.28-2.797a1.057 1.057 0 0 0 .058-1.504 1.07 1.07 0 0 0-1.504-.058c-1.318 1.229-1.811 2.97-1.984 4.39-.73-.352-1.638-.525-2.707-.333-1.094-1.568-2.611-2.291-4.09-1.939-1.446.346-2.355 1.114-2.899 1.958-.41-.896-.71-1.997-.454-3.034A1.062 1.062 0 1 0 3.61.804c-.442 1.747.096 3.475.73 4.755-1.018.141-2.118.653-3.053 1.869-.576.755-.768 1.696-.595 2.701a1.098 1.098 0 0 0-.448.314c-.198.25-.282.57-.224.883l3.808 19.808a1.07 1.07 0 0 0 1.05.864H20.11a1.07 1.07 0 0 0 1.05-.864l.038-.192.48-2.483.998-5.203 2.291-11.93a1.097 1.097 0 0 0-.224-.883zm-9.574-3.706c.474.307.736.73.768.774.186.352.538.57.928.57s.749-.218.934-.57c.026-.045.288-.467.768-.774.627-.41 1.35-.461 2.202-.16s.954 1.517.954 2.029c.006.461-.064.96-.192 1.453h-7.123c.237-1.19.096-2.49-.288-3.667.378.019.723.134 1.05.346zM2.982 8.723c.55-.717 1.178-1.069 1.933-1.069.57 0 1.018.211 1.062.23.346.192.749.173 1.082-.032.333-.211.512-.595.48-.986-.006-.077-.115-1.894 1.984-2.4.877-.211 1.626.755 1.907 1.178.806 1.222 1.222 3.11.774 4.416h-9.35c-.141-.442-.173-.941.128-1.338zm17.882 12.666-.064.019-1.376 7.462-.192.998H5.754L3.642 18.892c.141.134.282.262.429.39 2.208 1.901 5.242 2.944 8.538 2.944s6.323-1.043 8.531-2.944l.154-.134-.429 2.24zm-8.256-1.287c-5.523 0-9.485-3.206-9.971-7.91h19.942c-.493 4.704-4.454 7.91-9.971 7.91z"/></svg>