<svg xmlns="http://www.w3.org/2000/svg" width="32" height="32"><path fill="#f0d1a5" d="M29.53 21.408c-1.293-.461-2.381-.346-3.245.019.147-.877.467-1.83 1.171-2.483.429-.397.454-1.075.058-1.504s-1.075-.454-1.504-.058c-1.229 1.139-1.709 2.746-1.875 4.083a4.152 4.152 0 0 0-1.056-.314l1.888-9.83c.058-.314-.019-.634-.224-.877s-.506-.384-.819-.384h-.205c.096-.499.141-.998.134-1.472-.013-1.997-.902-3.494-2.374-4.019-1.408-.499-2.592-.352-3.507.064.147-.973.493-2.061 1.28-2.797.429-.397.454-1.075.058-1.504s-1.075-.454-1.504-.058c-1.318 1.222-1.818 2.963-1.984 4.384-.736-.346-1.645-.525-2.707-.333-1.094-1.574-2.611-2.298-4.09-1.939C7.572 2.732 6.67 3.5 6.126 4.351c-.41-.902-.71-2.003-.454-3.034.141-.57-.205-1.152-.774-1.293S3.746.229 3.605.798c-.442 1.747.096 3.475.73 4.755-1.018.134-2.118.653-3.046 1.869-.576.755-.774 1.696-.595 2.701a1.06 1.06 0 0 0-.672 1.197L3.83 31.128c.096.499.538.864 1.043.864h15.238c.512 0 .947-.365 1.043-.864l.038-.192c.288.198.595.365.928.486 1.267.474 2.445.275 3.046.115.314.083.794.179 1.363.179.506 0 1.082-.077 1.677-.294 2.362-.877 3.616-3.84 3.597-6.176-.013-1.901-.864-3.341-2.278-3.84zm-6.951-9.222c-.493 4.704-4.454 7.91-9.971 7.91s-9.478-3.206-9.971-7.91h19.942zm-6.643-4.679c.186.346.538.57.928.57s.749-.218.928-.57c.032-.051.288-.467.768-.774.627-.41 1.35-.461 2.202-.16s.954 1.517.954 2.029c0 .461-.064.96-.192 1.453h-7.123c.237-1.19.096-2.49-.288-3.667.378.019.723.134 1.05.346.48.314.742.73.768.774zM2.982 8.717C3.532 8 4.166 7.648 4.915 7.648c.57 0 1.018.205 1.069.23.339.192.749.173 1.082-.038s.512-.589.48-.986c0-.077-.115-1.894 1.984-2.4.877-.211 1.626.755 1.907 1.178.806 1.222 1.222 3.11.774 4.41H2.854c-.141-.442-.179-.941.122-1.338zm2.772 21.145L3.642 18.886c.141.134.282.262.429.39 2.208 1.901 5.242 2.95 8.538 2.95s6.33-1.05 8.538-2.95l.154-.134-.429 2.24s-.038.013-.064.019c-1.408.499-2.259 1.933-2.278 3.84a7.888 7.888 0 0 0 .896 3.622l-.192.998H5.756zm21.708-.435c-.941.352-1.882.019-1.914 0a1.06 1.06 0 0 0-.768 0c-.006 0-.96.352-1.914 0-1.338-.499-2.221-2.554-2.208-4.166 0-.467.096-1.581.858-1.85.352-.122.659-.173.941-.173 1.107 0 1.658.813 1.779 1.024a1.04 1.04 0 0 0 1.856 0c.154-.262.979-1.466 2.72-.851.762.269.851 1.382.858 1.85.013 1.606-.87 3.667-2.208 4.166z"/></svg>