<svg version="1.1" id="Layer_1" xmlns="http://www.w3.org/2000/svg" x="0" y="0" viewBox="0 0 46 52" style="enable-background:new 0 0 46 52" xml:space="preserve"><path d="M36.9 1C35.7.6 35 .5 33 .5c-2.2 0-2.7.1-4.4.6-2 .6-3.9 1.6-5.2 2.7l-.4.4-.7-.5c-2.7-2-5.6-3-8.9-3.2-1 0-2.4 0-2.9.1C5.7 1.6 2 5.5.8 10.8c-.4 1.8-.4 5.3 0 7.4 1 4.4 3.2 8.4 6.5 11.8 3 3.1 5.7 4.9 9.8 6.8l1.9.9v13.9h3.3V38.7c.4.1.9.1 1.3 0v12.8H27V37.6l1.8-.8c4-1.9 7-3.9 9.8-6.8 4.6-4.7 6.9-10 6.9-15.7C45.5 8 42.1 2.7 36.9 1zM14.6 14.3c.8.6 1.8 1.3 2.3 1.7 1.3 1 3.5 2.2 5.1 2.9.8.3 1.4.7 1.5.7.2.4.2 3.1.2 4.1 0 3.6.1 4.2.4 5 .7 1.5 1.9 2.3 3.7 2.3 1.1 0 2-.4 2.8-1.2 1-1 1.1-1.7 1.1-5.3v-.2c0-3.3 0-3.3 1.7-3.5h.1c2.3-.2 5.2-.8 7.2-1.5.4-.2.8-.3 1-.4-.3 1.1-1.2 3.3-1.9 4.4-1.3 2.3-2.3 3.5-4.4 5.4-2.9 2.7-6.9 5.1-11 6.5l-1.4.3-1.3-.5c-4.3-1.5-8.2-3.8-11.4-6.8-3.9-3.8-6-7.7-6.5-12.4-.2-1.7.1-4.3.4-5.2.6-.1 2.7.2 4.2.5 1.9.5 4 1.5 6 3l.2.2zm18.5 3.1c-2 .2-2.5.4-3.2.9-1.5 1.1-1.6 2.1-1.6 5.8 0 2.2 0 3.2-.2 3.4-.1.1-.3.2-.4.2-.2 0-.4-.1-.5-.2-.2-.3-.2-.7-.2-4.2 0-4.1-.1-5.1-1-6.1-.3-.3-2.1-1.2-3.2-1.8-1.7-.8-3.3-1.7-4.3-2.5-4.9-3.7-7.1-4.7-11.2-5.4-.6 0-1.1-.1-1.5-.1.3-.4.9-1.1 1.4-1.6 2.1-1.9 4.5-2.5 7.6-1.9.8.1 1.9.5 2.4.7 1.2.5 3.2 1.7 4 2.5 1.5 1.4 2.1 1.4 3.7-.1 2.1-2 5.6-3.3 8.5-3.3 3.8 0 7.3 3 8.4 7.2.2.8.4 2 .4 2.7.1 1.4.1 1.4-2.3 2.2-2.1.9-3.8 1.2-6.8 1.6z" style="fill:#ffa5ba"/></svg>