<svg xmlns="http://www.w3.org/2000/svg" width="28" height="32"><path fill="#c2e297" d="M22.708.615c-.738-.246-1.169-.308-2.4-.308-1.354 0-1.662.062-2.708.369-1.231.369-2.4.985-3.2 1.662l-.246.246-.431-.308C12.061 1.045 10.277.43 8.246.307c-.615 0-1.477 0-1.785.062C3.507.984 1.23 3.384.492 6.646.246 7.754.246 9.908.492 11.2c.615 2.708 1.969 5.169 4 7.262C6.338 20.37 8 21.477 10.523 22.647l1.169.554v8.554h2.031v-7.938c.246.062.554.062.8 0v7.877h2.092V23.14l1.108-.492c2.462-1.169 4.308-2.4 6.031-4.185C26.585 15.571 28 12.309 28 8.801c0-3.877-2.092-7.138-5.292-8.185zM8.985 8.8c.492.369 1.108.8 1.415 1.046.8.615 2.154 1.354 3.138 1.785.492.185.862.431.923.431.123.246.123 1.908.123 2.523 0 2.215.062 2.585.246 3.077.431.923 1.169 1.415 2.277 1.415.677 0 1.231-.246 1.723-.738.615-.615.677-1.046.677-3.262v-.123q0-2.031 1.046-2.154h.062c1.415-.123 3.2-.492 4.431-.923.246-.123.492-.185.615-.246-.185.677-.738 2.031-1.169 2.708-.8 1.415-1.415 2.154-2.708 3.323-1.785 1.662-4.246 3.138-6.769 4l-.862.185-.8-.308c-2.646-.923-5.046-2.338-7.015-4.185-2.4-2.338-3.692-4.738-4-7.631-.123-1.046.062-2.646.246-3.2.369-.062 1.662.123 2.585.308 1.169.308 2.462.923 3.692 1.846l.123.123zm11.384 1.908c-1.231.123-1.538.246-1.969.554-.923.677-.985 1.292-.985 3.569 0 1.354 0 1.969-.123 2.092a.466.466 0 0 1-.246.123.475.475 0 0 1-.308-.123c-.123-.185-.123-.431-.123-2.585 0-2.523-.062-3.138-.615-3.754-.185-.185-1.292-.738-1.969-1.108C12.985 8.984 12 8.43 11.385 7.938 8.37 5.661 7.016 5.046 4.493 4.615c-.369 0-.677-.062-.923-.062.185-.246.554-.677.862-.985C5.724 2.399 7.201 2.03 9.109 2.399c.492.062 1.169.308 1.477.431.738.308 1.969 1.046 2.462 1.538.923.862 1.292.862 2.277-.062 1.292-1.231 3.446-2.031 5.231-2.031 2.338 0 4.492 1.846 5.169 4.431.123.492.246 1.231.246 1.662q.062.862-1.415 1.354c-1.292.554-2.338.738-4.185.985z"/></svg>