<svg xmlns="http://www.w3.org/2000/svg" width="21" height="32"><path fill="#f0d1a5" d="M.486 13.203c-.314.211-.486.512-.486.845 0 .224 3.117 16.928 3.232 17.274.058.192.282.422.525.55.224.128.384.128 6.81.128s6.579 0 6.81-.128c.237-.128.467-.358.525-.55.109-.352 3.232-17.05 3.232-17.274 0-.333-.173-.634-.486-.845l-.211-.141H.693l-.211.141zm18.208 2.272c-.064.499-.416 1.587-.678 2.08-1.28 2.374-3.712 3.821-6.726 3.987-2.278.134-4.205-.333-5.818-1.395a7.027 7.027 0 0 1-2.266-2.438c-.307-.544-.71-1.715-.774-2.24l-.045-.358h16.352l-.045.358zM4.39 21.92c2.637 1.773 6.566 2.246 9.882 1.171a10.654 10.654 0 0 0 3.181-1.69c.275-.218.294-.218.262-.083-.019.083-.378 1.997-.806 4.243a613.334 613.334 0 0 1-.8 4.23l-.032.141H5.037l-.032-.141a742.91 742.91 0 0 1-.8-4.23c-.422-2.253-.787-4.16-.806-4.243-.032-.134-.013-.134.262.083.16.128.493.358.723.518z"/></svg>