<svg xmlns="http://www.w3.org/2000/svg" width="21" height="32"><path fill="#f0d1a5" d="M2.336.141c-.352.186-.55.563-.55 1.005 0 .813.211 1.555.614 2.202l.179.294-.339.384c-.378.422-.474.582-.646 1.088-.141.41-.154 1.165-.032 1.581.429 1.44 1.856 2.266 3.245 1.901.474-.128.762-.282 1.203-.659l.378-.314.352.173c.198.102.531.243.742.326l.378.134v.698c0 1.107.224 1.76.813 2.355.582.595 1.498.902 2.291.762.563-.102 1.12-.384 1.491-.762.582-.595.813-1.248.813-2.355v-.698l.384-.134c.211-.083.538-.224.736-.326l.352-.173.378.314c.442.378.73.531 1.203.659 1.395.371 2.816-.461 3.245-1.901.122-.416.109-1.171-.032-1.581-.173-.506-.262-.666-.646-1.088l-.339-.384.179-.294c.403-.646.608-1.389.614-2.202 0-.442-.205-.819-.55-1.005L18.523 0H2.6l-.262.141zm14.733 1.958s-.179.314-.397.666c-.653 1.03-.627 1.254.237 2.17.314.333.602.666.646.736.23.461-.23 1.037-.749.922-.122-.026-.39-.243-.787-.634-.787-.774-1.056-.864-1.658-.518-.691.397-1.581.806-2.01.928-.608.173-.819.307-.979.64-.128.256-.141.365-.141 1.363 0 1.229-.051 1.434-.397 1.6-.25.128-.301.128-.55 0-.352-.166-.397-.371-.397-1.6 0-.998-.013-1.107-.134-1.363-.166-.326-.378-.461-.979-.64-.525-.147-1.306-.493-1.734-.774-.403-.262-.762-.365-1.043-.314-.186.038-.371.179-.858.666-.403.397-.691.627-.819.653-.512.122-.979-.461-.742-.922.045-.077.333-.403.646-.736.864-.915.89-1.139.237-2.17-.224-.352-.397-.646-.397-.666 0-.026 2.931-.038 6.509-.038s6.509.013 6.509.038z"/></svg>