<!-- Generated by IcoMoon.io -->
<svg version="1.1" xmlns="http://www.w3.org/2000/svg" width="32" height="32" viewBox="0 0 32 32">
<title>apples-peach</title>
<path fill="#f0d1a5" d="M29.53 21.408c-1.293-0.461-2.381-0.346-3.245 0.019 0.147-0.877 0.467-1.83 1.171-2.483 0.429-0.397 0.454-1.075 0.058-1.504s-1.075-0.454-1.504-0.058c-1.229 1.139-1.709 2.746-1.875 4.083-0.32-0.141-0.672-0.256-1.056-0.314l1.888-9.83c0.058-0.314-0.019-0.634-0.224-0.877s-0.506-0.384-0.819-0.384h-0.205c0.096-0.499 0.141-0.998 0.134-1.472-0.013-1.997-0.902-3.494-2.374-4.019-1.408-0.499-2.592-0.352-3.507 0.064 0.147-0.973 0.493-2.061 1.28-2.797 0.429-0.397 0.454-1.075 0.058-1.504s-1.075-0.454-1.504-0.058c-1.318 1.222-1.818 2.963-1.984 4.384-0.736-0.346-1.645-0.525-2.707-0.333-1.094-1.574-2.611-2.298-4.090-1.939-1.453 0.346-2.355 1.114-2.899 1.965-0.41-0.902-0.71-2.003-0.454-3.034 0.141-0.57-0.205-1.152-0.774-1.293s-1.152 0.205-1.293 0.774c-0.442 1.747 0.096 3.475 0.73 4.755-1.018 0.134-2.118 0.653-3.046 1.869-0.576 0.755-0.774 1.696-0.595 2.701-0.173 0.064-0.326 0.173-0.448 0.32-0.205 0.243-0.282 0.57-0.224 0.877l3.808 19.808c0.096 0.499 0.538 0.864 1.043 0.864h15.238c0.512 0 0.947-0.365 1.043-0.864l0.038-0.192c0.288 0.198 0.595 0.365 0.928 0.486 1.267 0.474 2.445 0.275 3.046 0.115 0.314 0.083 0.794 0.179 1.363 0.179 0.506 0 1.082-0.077 1.677-0.294 2.362-0.877 3.616-3.84 3.597-6.176-0.013-1.901-0.864-3.341-2.278-3.84zM22.579 12.186c-0.493 4.704-4.454 7.91-9.971 7.91s-9.478-3.206-9.971-7.91h19.942zM15.936 7.507c0.186 0.346 0.538 0.57 0.928 0.57s0.749-0.218 0.928-0.57c0.032-0.051 0.288-0.467 0.768-0.774 0.627-0.41 1.35-0.461 2.202-0.16s0.954 1.517 0.954 2.029c0 0.461-0.064 0.96-0.192 1.453h-7.123c0.237-1.19 0.096-2.49-0.288-3.667 0.378 0.019 0.723 0.134 1.050 0.346 0.48 0.314 0.742 0.73 0.768 0.774zM2.982 8.717c0.55-0.717 1.184-1.069 1.933-1.069v0c0.57 0 1.018 0.205 1.069 0.23 0.339 0.192 0.749 0.173 1.082-0.038s0.512-0.589 0.48-0.986c0-0.077-0.115-1.894 1.984-2.4 0.877-0.211 1.626 0.755 1.907 1.178 0.806 1.222 1.222 3.11 0.774 4.41h-9.357c-0.141-0.442-0.179-0.941 0.122-1.338zM5.754 29.862l-2.112-10.976c0.141 0.134 0.282 0.262 0.429 0.39 2.208 1.901 5.242 2.95 8.538 2.95s6.33-1.050 8.538-2.95c0.051-0.045 0.102-0.090 0.154-0.134l-0.429 2.24s-0.038 0.013-0.064 0.019c-1.408 0.499-2.259 1.933-2.278 3.84-0.006 1.165 0.294 2.483 0.896 3.622l-0.192 0.998h-13.478zM27.462 29.427c-0.941 0.352-1.882 0.019-1.914 0-0.25-0.096-0.518-0.096-0.768 0-0.006 0-0.96 0.352-1.914 0-1.338-0.499-2.221-2.554-2.208-4.166 0-0.467 0.096-1.581 0.858-1.85 0.352-0.122 0.659-0.173 0.941-0.173 1.107 0 1.658 0.813 1.779 1.024 0.186 0.352 0.538 0.57 0.928 0.57s0.749-0.218 0.928-0.57c0.154-0.262 0.979-1.466 2.72-0.851 0.762 0.269 0.851 1.382 0.858 1.85 0.013 1.606-0.87 3.667-2.208 4.166z"></path>
</svg>
