<!-- Generated by IcoMoon.io -->
<svg version="1.1" xmlns="http://www.w3.org/2000/svg" width="32" height="32" viewBox="0 0 32 32">
<title>apples</title>
<path fill="#ffa5ba" d="M24.742 10.445c-0.205-0.243-0.506-0.384-0.826-0.384h-0.198c0.090-0.499 0.141-0.998 0.134-1.472-0.013-1.99-0.902-3.494-2.374-4.013-1.408-0.506-2.586-0.352-3.507 0.064 0.147-0.973 0.493-2.061 1.28-2.797 0.435-0.397 0.461-1.069 0.058-1.504-0.397-0.429-1.069-0.454-1.504-0.058-1.318 1.229-1.811 2.97-1.984 4.39-0.73-0.352-1.638-0.525-2.707-0.333-1.094-1.568-2.611-2.291-4.090-1.939-1.446 0.346-2.355 1.114-2.899 1.958-0.41-0.896-0.71-1.997-0.454-3.034 0.147-0.57-0.198-1.146-0.768-1.293-0.57-0.141-1.152 0.205-1.293 0.774-0.442 1.747 0.096 3.475 0.73 4.755-1.018 0.141-2.118 0.653-3.053 1.869-0.576 0.755-0.768 1.696-0.595 2.701-0.173 0.064-0.326 0.173-0.448 0.314-0.198 0.25-0.282 0.57-0.224 0.883l3.808 19.808c0.096 0.499 0.538 0.864 1.050 0.864h15.232c0.512 0 0.954-0.365 1.050-0.864l0.038-0.192 0.48-2.483 0.998-5.203 2.291-11.93c0.058-0.314-0.026-0.634-0.224-0.883zM15.168 6.739c0.474 0.307 0.736 0.73 0.768 0.774 0.186 0.352 0.538 0.57 0.928 0.57s0.749-0.218 0.934-0.57c0.026-0.045 0.288-0.467 0.768-0.774 0.627-0.41 1.35-0.461 2.202-0.16s0.954 1.517 0.954 2.029c0.006 0.461-0.064 0.96-0.192 1.453h-7.123c0.237-1.19 0.096-2.49-0.288-3.667 0.378 0.019 0.723 0.134 1.050 0.346zM2.982 8.723c0.55-0.717 1.178-1.069 1.933-1.069 0.57 0 1.018 0.211 1.062 0.23 0.346 0.192 0.749 0.173 1.082-0.032 0.333-0.211 0.512-0.595 0.48-0.986-0.006-0.077-0.115-1.894 1.984-2.4 0.877-0.211 1.626 0.755 1.907 1.178 0.806 1.222 1.222 3.11 0.774 4.416h-9.35c-0.141-0.442-0.173-0.941 0.128-1.338zM20.864 21.389s-0.045 0.013-0.064 0.019l-1.376 7.462-0.192 0.998h-13.478l-2.112-10.976c0.141 0.134 0.282 0.262 0.429 0.39 2.208 1.901 5.242 2.944 8.538 2.944s6.323-1.043 8.531-2.944l0.154-0.134-0.429 2.24zM12.608 20.102c-5.523 0-9.485-3.206-9.971-7.91h19.942c-0.493 4.704-4.454 7.91-9.971 7.91z"></path>
</svg>
