<!-- Generated by IcoMoon.io -->
<svg version="1.1" xmlns="http://www.w3.org/2000/svg" width="32" height="32" viewBox="0 0 32 32">
<title>apple-small</title>
<path fill="#ffa5ba" d="M25.308 9.363c-1.85-0.654-3.506-0.765-4.953-0.529-0.125 0.014-0.25 0.028-0.376 0.056-0.042 0-0.083 0.014-0.125 0.028-0.278 0.056-0.557 0.125-0.807 0.209-0.264 0.070-0.515 0.167-0.765 0.264-0.014 0-0.014 0.014-0.028 0.014 0.32-1.906 1.030-3.979 2.546-5.384 0.932-0.877 0.988-2.337 0.125-3.283-0.877-0.932-2.337-0.988-3.27-0.111-0.723 0.668-1.336 1.419-1.837 2.212-1.35 2.115-1.976 4.55-2.24 6.65-0.070-0.028-0.125-0.056-0.195-0.083h-0.014c-0.25-0.111-0.501-0.195-0.779-0.278-0.25-0.083-0.529-0.153-0.807-0.209-0.042-0.014-0.083-0.028-0.125-0.028-0.125-0.028-0.25-0.042-0.376-0.056-1.447-0.237-3.103-0.125-4.953 0.529-3.061 1.099-4.911 4.216-4.939 8.348-0.014 1.308 0.153 2.685 0.501 4.063 0.167 0.654 0.376 1.308 0.598 1.934 0.25 0.64 0.529 1.266 0.849 1.864 0.946 1.809 2.226 3.409 3.854 4.508 0.083 0.083 0.181 0.139 0.278 0.195 0.223 0.153 0.445 0.278 0.682 0.403 0.334 0.181 0.682 0.334 1.043 0.473 1.308 0.473 2.56 0.64 3.659 0.64 1.238 0 2.282-0.209 2.963-0.39 1.294 0.348 3.868 0.765 6.623-0.25 0.362-0.139 0.696-0.292 1.043-0.473 0.237-0.125 0.459-0.25 0.682-0.403 0.097-0.056 0.195-0.125 0.278-0.181v0c1.614-1.113 2.908-2.713 3.854-4.508v0c0.32-0.612 0.598-1.238 0.849-1.878 0.237-0.64 0.431-1.28 0.598-1.934 0.348-1.377 0.515-2.769 0.501-4.063-0.028-4.132-1.878-7.249-4.939-8.348zM23.402 24.696c-0.723 0.988-1.6 1.753-2.588 2.115-1.057 0.39-2.129 0.39-2.908 0.292-0.209-0.028-0.403-0.056-0.557-0.097-0.056-0.014-0.097-0.028-0.125-0.028-0.25-0.056-0.431-0.111-0.515-0.139-0.028-0.014-0.056-0.014-0.056-0.014-0.139-0.056-0.264-0.097-0.403-0.125-0.292-0.056-0.57-0.056-0.863 0-0.139 0.028-0.264 0.070-0.403 0.125 0 0-0.028 0.014-0.056 0.014-0.083 0.028-0.264 0.083-0.515 0.139-0.042 0.014-0.083 0.014-0.125 0.028-0.153 0.042-0.348 0.070-0.557 0.097-0.793 0.097-1.85 0.097-2.908-0.292-0.988-0.376-1.864-1.127-2.588-2.115-1.405-1.906-2.24-4.633-2.226-6.943 0.014-1.016 0.209-3.437 1.864-4.021 0.974-0.348 1.823-0.431 2.532-0.348 0.264 0.028 0.515 0.070 0.737 0.139 0.111 0.028 0.223 0.070 0.334 0.111 0.111 0.028 0.209 0.083 0.306 0.125s0.195 0.083 0.278 0.153c0.097 0.042 0.181 0.083 0.264 0.153 0.167 0.097 0.32 0.209 0.459 0.334 0.042 0.028 0.070 0.056 0.097 0.083 0.097 0.083 0.195 0.181 0.278 0.264 0.334 0.348 0.543 0.668 0.64 0.835 0.39 0.751 1.155 1.238 2.017 1.238s1.628-0.487 2.017-1.238c0.097-0.167 0.306-0.473 0.64-0.835 0.083-0.083 0.181-0.167 0.278-0.264 0.028-0.028 0.070-0.056 0.097-0.083 0.139-0.111 0.292-0.223 0.459-0.334 0.083-0.070 0.167-0.111 0.264-0.153 0.083-0.056 0.181-0.111 0.278-0.153s0.209-0.083 0.306-0.125c0.111-0.042 0.223-0.083 0.334-0.111 0.223-0.070 0.473-0.111 0.737-0.139 0.71-0.083 1.558 0 2.532 0.348 1.656 0.584 1.85 3.005 1.864 4.021 0.014 2.31-0.821 5.037-2.226 6.943z"></path>
</svg>
