<!-- Generated by IcoMoon.io -->
<svg version="1.1" xmlns="http://www.w3.org/2000/svg" width="28" height="32" viewBox="0 0 28 32">
<title>heart-lime</title>
<path fill="#c2e297" d="M22.708 0.615c-0.738-0.246-1.169-0.308-2.4-0.308-1.354 0-1.662 0.062-2.708 0.369-1.231 0.369-2.4 0.985-3.2 1.662l-0.246 0.246-0.431-0.308c-1.662-1.231-3.446-1.846-5.477-1.969-0.615 0-1.477 0-1.785 0.062-2.954 0.615-5.231 3.015-5.969 6.277-0.246 1.108-0.246 3.262 0 4.554 0.615 2.708 1.969 5.169 4 7.262 1.846 1.908 3.508 3.015 6.031 4.185l1.169 0.554v8.554h2.031v-7.938c0.246 0.062 0.554 0.062 0.8 0v7.877h2.092v-8.554l1.108-0.492c2.462-1.169 4.308-2.4 6.031-4.185 2.831-2.892 4.246-6.154 4.246-9.662 0-3.877-2.092-7.138-5.292-8.185zM8.985 8.8c0.492 0.369 1.108 0.8 1.415 1.046 0.8 0.615 2.154 1.354 3.138 1.785 0.492 0.185 0.862 0.431 0.923 0.431 0.123 0.246 0.123 1.908 0.123 2.523 0 2.215 0.062 2.585 0.246 3.077 0.431 0.923 1.169 1.415 2.277 1.415 0.677 0 1.231-0.246 1.723-0.738 0.615-0.615 0.677-1.046 0.677-3.262v-0.123q0-2.031 1.046-2.154h0.062c1.415-0.123 3.2-0.492 4.431-0.923 0.246-0.123 0.492-0.185 0.615-0.246-0.185 0.677-0.738 2.031-1.169 2.708-0.8 1.415-1.415 2.154-2.708 3.323-1.785 1.662-4.246 3.138-6.769 4l-0.862 0.185-0.8-0.308c-2.646-0.923-5.046-2.338-7.015-4.185-2.4-2.338-3.692-4.738-4-7.631-0.123-1.046 0.062-2.646 0.246-3.2 0.369-0.062 1.662 0.123 2.585 0.308 1.169 0.308 2.462 0.923 3.692 1.846l0.123 0.123zM20.369 10.708c-1.231 0.123-1.538 0.246-1.969 0.554-0.923 0.677-0.985 1.292-0.985 3.569 0 1.354 0 1.969-0.123 2.092-0.062 0.062-0.185 0.123-0.246 0.123-0.123 0-0.246-0.062-0.308-0.123-0.123-0.185-0.123-0.431-0.123-2.585 0-2.523-0.062-3.138-0.615-3.754-0.185-0.185-1.292-0.738-1.969-1.108-1.046-0.492-2.031-1.046-2.646-1.538-3.015-2.277-4.369-2.892-6.892-3.323-0.369 0-0.677-0.062-0.923-0.062 0.185-0.246 0.554-0.677 0.862-0.985 1.292-1.169 2.769-1.538 4.677-1.169 0.492 0.062 1.169 0.308 1.477 0.431 0.738 0.308 1.969 1.046 2.462 1.538 0.923 0.862 1.292 0.862 2.277-0.062 1.292-1.231 3.446-2.031 5.231-2.031 2.338 0 4.492 1.846 5.169 4.431 0.123 0.492 0.246 1.231 0.246 1.662q0.062 0.862-1.415 1.354c-1.292 0.554-2.338 0.738-4.185 0.985z"></path>
</svg>
