<?xml version="1.0" encoding="utf-8"?>
<!-- Generator: Adobe Illustrator 26.1.0, SVG Export Plug-In . SVG Version: 6.00 Build 0)  -->
<svg version="1.1" id="Layer_1" xmlns="http://www.w3.org/2000/svg" xmlns:xlink="http://www.w3.org/1999/xlink" x="0px" y="0px"
	 viewBox="0 0 46 52" style="enable-background:new 0 0 46 52;" xml:space="preserve">
<style type="text/css">
	.st0{fill:#FFA5BA;}
</style>
<path class="st0" d="M36.9,1C35.7,0.6,35,0.5,33,0.5c-2.2,0-2.7,0.1-4.4,0.6c-2,0.6-3.9,1.6-5.2,2.7L23,4.2l-0.7-0.5
	c-2.7-2-5.6-3-8.9-3.2c-1,0-2.4,0-2.9,0.1C5.7,1.6,2,5.5,0.8,10.8c-0.4,1.8-0.4,5.3,0,7.4c1,4.4,3.2,8.4,6.5,11.8
	c3,3.1,5.7,4.9,9.8,6.8l1.9,0.9v13.9h3.3V38.7c0.4,0.1,0.9,0.1,1.3,0v12.8H27V37.6l1.8-0.8c4-1.9,7-3.9,9.8-6.8
	c4.6-4.7,6.9-10,6.9-15.7C45.5,8,42.1,2.7,36.9,1z M14.6,14.3c0.8,0.6,1.8,1.3,2.3,1.7c1.3,1,3.5,2.2,5.1,2.9
	c0.8,0.3,1.4,0.7,1.5,0.7c0.2,0.4,0.2,3.1,0.2,4.1c0,3.6,0.1,4.2,0.4,5c0.7,1.5,1.9,2.3,3.7,2.3c1.1,0,2-0.4,2.8-1.2
	c1-1,1.1-1.7,1.1-5.3v-0.2c0-3.3,0-3.3,1.7-3.5l0.1,0c2.3-0.2,5.2-0.8,7.2-1.5c0.4-0.2,0.8-0.3,1-0.4c-0.3,1.1-1.2,3.3-1.9,4.4
	c-1.3,2.3-2.3,3.5-4.4,5.4c-2.9,2.7-6.9,5.1-11,6.5L23,35.5l-1.3-0.5c-4.3-1.5-8.2-3.8-11.4-6.8c-3.9-3.8-6-7.7-6.5-12.4
	c-0.2-1.7,0.1-4.3,0.4-5.2c0.6-0.1,2.7,0.2,4.2,0.5c1.9,0.5,4,1.5,6,3L14.6,14.3z M33.1,17.4c-2,0.2-2.5,0.4-3.2,0.9
	c-1.5,1.1-1.6,2.1-1.6,5.8c0,2.2,0,3.2-0.2,3.4c-0.1,0.1-0.3,0.2-0.4,0.2c-0.2,0-0.4-0.1-0.5-0.2C27,27.2,27,26.8,27,23.3
	c0-4.1-0.1-5.1-1-6.1c-0.3-0.3-2.1-1.2-3.2-1.8c-1.7-0.8-3.3-1.7-4.3-2.5c-4.9-3.7-7.1-4.7-11.2-5.4C6.7,7.5,6.2,7.4,5.8,7.4
	C6.1,7,6.7,6.3,7.2,5.8c2.1-1.9,4.5-2.5,7.6-1.9c0.8,0.1,1.9,0.5,2.4,0.7c1.2,0.5,3.2,1.7,4,2.5c1.5,1.4,2.1,1.4,3.7-0.1
	C27,5,30.5,3.7,33.4,3.7c3.8,0,7.3,3,8.4,7.2c0.2,0.8,0.4,2,0.4,2.7c0.1,1.4,0.1,1.4-2.3,2.2C37.8,16.7,36.1,17,33.1,17.4z"/>
</svg>
