<!-- Generated by IcoMoon.io -->
<svg version="1.1" xmlns="http://www.w3.org/2000/svg" width="21" height="32" viewBox="0 0 21 32">
<title>milk</title>
<path fill="#ffa5ba" d="M0.486 13.203c-0.314 0.211-0.486 0.512-0.486 0.845 0 0.224 3.117 16.928 3.232 17.274 0.058 0.192 0.282 0.422 0.525 0.55 0.224 0.128 0.384 0.128 6.81 0.128s6.579 0 6.81-0.128c0.237-0.128 0.467-0.358 0.525-0.55 0.109-0.352 3.232-17.050 3.232-17.274 0-0.333-0.173-0.634-0.486-0.845l-0.211-0.141h-19.744l-0.211 0.141zM18.694 15.475c-0.064 0.499-0.416 1.587-0.678 2.080-1.28 2.374-3.712 3.821-6.726 3.987-2.278 0.134-4.205-0.333-5.818-1.395-0.934-0.614-1.715-1.453-2.266-2.438-0.307-0.544-0.71-1.715-0.774-2.24l-0.045-0.358h16.352l-0.045 0.358zM4.39 21.92c2.637 1.773 6.566 2.246 9.882 1.171 1.107-0.358 2.234-0.954 3.181-1.69 0.275-0.218 0.294-0.218 0.262-0.083-0.019 0.083-0.378 1.997-0.806 4.243-0.422 2.253-0.781 4.154-0.8 4.23l-0.032 0.141h-11.040l-0.032-0.141c-0.019-0.077-0.378-1.984-0.8-4.23-0.422-2.253-0.787-4.16-0.806-4.243-0.032-0.134-0.013-0.134 0.262 0.083 0.16 0.128 0.493 0.358 0.723 0.518z"></path>
</svg>
