<!-- Generated by IcoMoon.io -->
<svg version="1.1" xmlns="http://www.w3.org/2000/svg" width="21" height="32" viewBox="0 0 21 32">
<title>udder-peach</title>
<path fill="#f0d1a5" d="M2.336 0.141c-0.352 0.186-0.55 0.563-0.55 1.005 0 0.813 0.211 1.555 0.614 2.202l0.179 0.294-0.339 0.384c-0.378 0.422-0.474 0.582-0.646 1.088-0.141 0.41-0.154 1.165-0.032 1.581 0.429 1.44 1.856 2.266 3.245 1.901 0.474-0.128 0.762-0.282 1.203-0.659l0.378-0.314 0.352 0.173c0.198 0.102 0.531 0.243 0.742 0.326l0.378 0.134v0.698c0 1.107 0.224 1.76 0.813 2.355 0.582 0.595 1.498 0.902 2.291 0.762 0.563-0.102 1.12-0.384 1.491-0.762 0.582-0.595 0.813-1.248 0.813-2.355v-0.698l0.384-0.134c0.211-0.083 0.538-0.224 0.736-0.326l0.352-0.173 0.378 0.314c0.442 0.378 0.73 0.531 1.203 0.659 1.395 0.371 2.816-0.461 3.245-1.901 0.122-0.416 0.109-1.171-0.032-1.581-0.173-0.506-0.262-0.666-0.646-1.088l-0.339-0.384 0.179-0.294c0.403-0.646 0.608-1.389 0.614-2.202 0-0.442-0.205-0.819-0.55-1.005l-0.269-0.141h-15.923l-0.262 0.141zM17.069 2.099s-0.179 0.314-0.397 0.666c-0.653 1.030-0.627 1.254 0.237 2.17 0.314 0.333 0.602 0.666 0.646 0.736 0.23 0.461-0.23 1.037-0.749 0.922-0.122-0.026-0.39-0.243-0.787-0.634-0.787-0.774-1.056-0.864-1.658-0.518-0.691 0.397-1.581 0.806-2.010 0.928-0.608 0.173-0.819 0.307-0.979 0.64-0.128 0.256-0.141 0.365-0.141 1.363 0 1.229-0.051 1.434-0.397 1.6-0.25 0.128-0.301 0.128-0.55 0-0.352-0.166-0.397-0.371-0.397-1.6 0-0.998-0.013-1.107-0.134-1.363-0.166-0.326-0.378-0.461-0.979-0.64-0.525-0.147-1.306-0.493-1.734-0.774-0.403-0.262-0.762-0.365-1.043-0.314-0.186 0.038-0.371 0.179-0.858 0.666-0.403 0.397-0.691 0.627-0.819 0.653-0.512 0.122-0.979-0.461-0.742-0.922 0.045-0.077 0.333-0.403 0.646-0.736 0.864-0.915 0.89-1.139 0.237-2.17-0.224-0.352-0.397-0.646-0.397-0.666 0-0.026 2.931-0.038 6.509-0.038s6.509 0.013 6.509 0.038z"></path>
</svg>
