<svg xmlns="http://www.w3.org/2000/svg" viewBox="-1 -1 51.7 52" xml:space="preserve"><ellipse fill="#FFF" cx="25" cy="25.5" rx="24" ry="24.5"/><path fill="#D41443" d="M18.5.9C6.9 4.4 0 13.5 0 25c0 9.4 4.8 17.6 12.8 21.7 4.1 2.1 4.7.6.9-2.3-2.7-2.2-3.2-3.2-3.2-6.9 0-2.6-.6-4.7-1.5-5.5-1.8-1.5-2-5.4-.2-6.8.7-.6 1.4-2.6 1.5-4.4C10.8 14.2 17.9 8 25.1 8s14.3 6.2 14.8 12.8c.1 1.8.8 3.8 1.5 4.4 1.8 1.4 1.6 5.3-.2 6.8-.9.8-1.5 2.9-1.5 5.5 0 3.7-.5 4.7-3.2 6.9-4.2 3.3-3 4.5 1.7 1.6 6.6-4.1 11.6-13 11.6-20.9C49.7 9.3 33.2-3.5 18.5.9z"/><path fill="#D41443" d="M19.8 12.5c-1.8.8-3.3 1.8-3.3 2.4 0 1.1 5.4 3.1 8.6 3.1s8.6-2 8.6-3.1c0-1.2-6.2-3.9-8.8-3.9-1.1.1-3.4.7-5.1 1.5zM14.1 18.7c-.3.4-.6 1.7-.6 3 0 2.3.1 2.3 11.6 2.3s11.6 0 11.6-2.3c0-3.4-.9-3.8-4.1-2.2-3.6 1.9-11.3 1.9-14.9 0-1.7-.8-3.2-1.1-3.6-.8zM11.2 27.6c-1.6 1.7 1.1 2.4 9 2.4h8.5v3.5c0 1.9.5 3.5 1 3.5.6 0 1-1.5 1-3.4 0-3.3.2-3.5 4-3.8 2.2-.2 4-.8 4-1.3-.1-1.1-26.4-2-27.5-.9z"/><path fill="#D41443" d="M13.5 36.4c0 5.5 1.9 6.6 11.6 6.6s11.6-1.1 11.6-6.6c0-2.4-.5-3.4-1.5-3.4-.9 0-1.5.9-1.5 2.4 0 5.6-7.6 6.1-8.8.6-.5-2.9-.8-3-5.9-3h-5.4v3.4zM19.7 47.7c.6 3.2 10.9 2.9 10.9-.2 0-1.1-1.3-1.5-5.6-1.5-4.8 0-5.6.3-5.3 1.7z"/></svg>