<svg aria-hidden="true" style="position: absolute; width: 0; height: 0; overflow: hidden;" version="1.1" xmlns="http://www.w3.org/2000/svg" xmlns:xlink="http://www.w3.org/1999/xlink">
  <defs>

    <symbol id="icon-facebook" viewBox="0 0 32 32">
      <path d="M16 32c8.837 0 16-7.163 16-16S24.837 0 16 0 0 7.163 0 16s7.163 16 16 16z" />
      <path d="M20.446 15.982h-2.61V25.6h-3.955v-9.618H12v-3.38h1.881v-2.187c0-1.564.739-4.014 3.99-4.014l2.929.012v3.281h-2.125c-.349 0-.839.175-.839.921v1.989h2.955l-.346 3.377z" />
    </symbol>
    <symbol id="icon-telegram" viewBox="0 0 32 32">
      <path d="M32 16c0 8.837-7.163 16-16 16S0 24.837 0 16 7.163 0 16 0s16 7.163 16 16z" />
      <path d="m12.867 18.375-.318 4.169c.454 0 .651-.182.887-.401l2.13-1.9 4.415 3.017c.81.421 1.38.199 1.598-.695l2.898-12.673c.257-1.117-.433-1.554-1.222-1.28L6.223 14.698c-1.162.421-1.145 1.026-.198 1.3l4.354 1.264 10.115-5.907c.476-.294.909-.131.553.163l-8.182 6.857z" />
    </symbol>
    <symbol id="icon-github" viewBox="0 0 32 32">
      <path d="M32 16c0 8.837-7.163 16-16 16S0 24.837 0 16 7.163 0 16 0s16 7.163 16 16z" />
      <path d="M16 6.588c-5.169 0-9.412 4.242-9.412 9.412 0 4.411 3.095 8.419 7.206 9.412v-3.114a2.307 2.307 0 0 1-1.197-.03c-.556-.164-1.008-.535-1.344-1.1-.214-.361-.593-.752-.988-.723l-.097-1.099c.855-.073 1.595.521 2.034 1.259.195.328.419.52.708.605.278.082.578.043.926-.08.088-.698.407-.959.648-1.326v-.001c-2.451-.366-3.428-1.666-3.816-2.693-.514-1.363-.238-3.066.671-4.142.018-.021.05-.076.037-.114-.417-1.258.091-2.299.11-2.41.481.142.559-.143 2.089.786l.264.159c.111.066.076.028.186.02A8.031 8.031 0 0 1 16 11.131a8.016 8.016 0 0 1 2.002.285l.086.009c-.007-.001.023-.005.075-.036 1.911-1.157 1.842-.779 2.355-.946.019.111.519 1.169.107 2.411-.056.171 1.657 1.739.708 4.256-.388 1.027-1.365 2.328-3.816 2.693v.001c.314.479.692.734.69 1.722v3.887c4.111-.993 7.206-5 7.206-9.412 0-5.169-4.242-9.412-9.412-9.412z" />
    </symbol>
    <symbol id="icon-house" viewBox="0 0 32 32">
      <path d="M34.472 15.381c.633-.649.572-1.644-.136-2.222L18.735.425c-.708-.578-1.843-.566-2.537.027L.544 13.838c-.693.593-.727 1.587-.075 2.219l.392.381c.651.632 1.704.707 2.349.168l1.17-.977v14.308c0 .878.763 1.588 1.703 1.588h6.102c.94 0 1.703-.711 1.703-1.588v-10.01h7.783v10.01c-.014.877.659 1.588 1.6 1.588h6.467c.94 0 1.703-.711 1.703-1.588V15.831l.722.591c.399.327 1.234.065 1.866-.585l.444-.455z" />
    </symbol>
    <symbol id="icon-heart" viewBox="0 0 28 32">
      <path d="M22.708 0.615c-0.738-0.246-1.169-0.308-2.4-0.308-1.354 0-1.662 0.062-2.708 0.369-1.231 0.369-2.4 0.985-3.2 1.662l-0.246 0.246-0.431-0.308c-1.662-1.231-3.446-1.846-5.477-1.969-0.615 0-1.477 0-1.785 0.062-2.954 0.615-5.231 3.015-5.969 6.277-0.246 1.108-0.246 3.262 0 4.554 0.615 2.708 1.969 5.169 4 7.262 1.846 1.908 3.508 3.015 6.031 4.185l1.169 0.554v8.554h2.031v-7.938c0.246 0.062 0.554 0.062 0.8 0v7.877h2.092v-8.554l1.108-0.492c2.462-1.169 4.308-2.4 6.031-4.185 2.831-2.892 4.246-6.154 4.246-9.662 0-3.877-2.092-7.138-5.292-8.185zM8.985 8.8c0.492 0.369 1.108 0.8 1.415 1.046 0.8 0.615 2.154 1.354 3.138 1.785 0.492 0.185 0.862 0.431 0.923 0.431 0.123 0.246 0.123 1.908 0.123 2.523 0 2.215 0.062 2.585 0.246 3.077 0.431 0.923 1.169 1.415 2.277 1.415 0.677 0 1.231-0.246 1.723-0.738 0.615-0.615 0.677-1.046 0.677-3.262v-0.123c0-2.031 0-2.031 1.046-2.154h0.062c1.415-0.123 3.2-0.492 4.431-0.923 0.246-0.123 0.492-0.185 0.615-0.246-0.185 0.677-0.738 2.031-1.169 2.708-0.8 1.415-1.415 2.154-2.708 3.323-1.785 1.662-4.246 3.138-6.769 4l-0.862 0.185-0.8-0.308c-2.646-0.923-5.046-2.338-7.015-4.185-2.4-2.338-3.692-4.738-4-7.631-0.123-1.046 0.062-2.646 0.246-3.2 0.369-0.062 1.662 0.123 2.585 0.308 1.169 0.308 2.462 0.923 3.692 1.846l0.123 0.123zM20.369 10.708c-1.231 0.123-1.538 0.246-1.969 0.554-0.923 0.677-0.985 1.292-0.985 3.569 0 1.354 0 1.969-0.123 2.092-0.062 0.062-0.185 0.123-0.246 0.123-0.123 0-0.246-0.062-0.308-0.123-0.123-0.185-0.123-0.431-0.123-2.585 0-2.523-0.062-3.138-0.615-3.754-0.185-0.185-1.292-0.738-1.969-1.108-1.046-0.492-2.031-1.046-2.646-1.538-3.015-2.277-4.369-2.892-6.892-3.323-0.369 0-0.677-0.062-0.923-0.062 0.185-0.246 0.554-0.677 0.862-0.985 1.292-1.169 2.769-1.538 4.677-1.169 0.492 0.062 1.169 0.308 1.477 0.431 0.738 0.308 1.969 1.046 2.462 1.538 0.923 0.862 1.292 0.862 2.277-0.062 1.292-1.231 3.446-2.031 5.231-2.031 2.338 0 4.492 1.846 5.169 4.431 0.123 0.492 0.246 1.231 0.246 1.662 0.062 0.862 0.062 0.862-1.415 1.354-1.292 0.554-2.338 0.738-4.185 0.985z"></path>
    </symbol>
    <symbol id="icon-apples" viewBox="0 0 32 32">
      <path d="M29.626 21.411c-1.292-.458-2.382-.344-3.242.018.145-.877.47-1.832 1.17-2.481a1.065 1.065 0 0 0-1.449-1.561c-1.229 1.14-1.706 2.748-1.874 4.081a4.036 4.036 0 0 0-1.058-.311l1.89-9.83a1.065 1.065 0 0 0-1.046-1.266h-.204c.094-.5.141-.997.137-1.47-.016-1.994-.903-3.495-2.374-4.017-1.41-.5-2.59-.35-3.507.066.145-.976.494-2.063 1.282-2.794A1.065 1.065 0 0 0 17.902.285c-1.32 1.225-1.815 2.965-1.982 4.386-.735-.348-1.644-.527-2.708-.33-1.094-1.571-2.613-2.296-4.089-1.942-1.451.349-2.358 1.115-2.901 1.962-.41-.899-.712-2.001-.452-3.036A1.065 1.065 0 0 0 3.705.806c-.439 1.746.095 3.476.729 4.758-1.016.137-2.117.65-3.049 1.866-.578.755-.773 1.698-.596 2.7a1.065 1.065 0 0 0-.674 1.197l3.809 19.809c.096.501.535.864 1.046.864h15.237c.511 0 .949-.362 1.046-.864l.038-.195c.287.198.596.363.927.487 1.266.471 2.447.278 3.044.118.316.085.795.179 1.364.179.506 0 1.084-.075 1.68-.297 2.36-.879 3.615-3.839 3.596-6.178-.015-1.904-.866-3.339-2.276-3.839zm-6.952-9.221c-.49 4.705-4.452 7.91-9.971 7.91s-9.481-3.204-9.971-7.91h19.942zm-6.642-4.675a1.047 1.047 0 0 0 1.86 0c.029-.048.29-.466.769-.777.629-.408 1.35-.46 2.203-.157.851.302.952 1.518.956 2.027.004.463-.064.962-.191 1.453h-7.126c.236-1.19.094-2.492-.289-3.669a2.12 2.12 0 0 1 1.047.346c.479.311.74.729.769.777zM3.077 8.724c.55-.719 1.182-1.068 1.932-1.069h.002c.57 0 1.016.208 1.066.232a1.05 1.05 0 0 0 1.079-.037c.331-.211.51-.592.481-.983-.006-.077-.116-1.893 1.983-2.397.876-.211 1.625.754 1.906 1.178.807 1.22 1.221 3.108.777 4.413H2.954c-.141-.443-.179-.943.122-1.336zM5.851 29.87 3.74 18.892c.138.133.281.263.427.389 2.208 1.901 5.239 2.948 8.535 2.948s6.328-1.047 8.535-2.948c.052-.044.102-.09.152-.135l-.431 2.243c-.02.007-.041.013-.061.021-1.41.5-2.261 1.935-2.276 3.839-.009 1.164.297 2.483.898 3.622l-.192.999H5.85zm21.711-.438c-.943.351-1.881.017-1.916.005a1.04 1.04 0 0 0-.768 0c-.009.004-.96.352-1.917-.005-1.338-.498-2.223-2.556-2.21-4.165.004-.466.095-1.578.858-1.849.349-.124.661-.175.939-.175 1.108 0 1.657.812 1.782 1.024a1.047 1.047 0 0 0 1.862 0c.156-.265.977-1.468 2.721-.849.763.271.854 1.383.858 1.849.013 1.609-.872 3.667-2.21 4.166z" />
    </symbol>
    <symbol id="icon-milk" viewBox="0 0 21 32">
      <path d="M2.333.144c-.35.188-.553.563-.553 1.006.006.813.209 1.556.614 2.2l.178.294-.338.381c-.381.425-.473.581-.645 1.088-.141.412-.153 1.162-.031 1.581.43 1.438 1.854 2.269 3.248 1.9.473-.125.761-.281 1.203-.656l.375-.312.35.175c.196.1.528.244.743.325l.381.138v.7c0 1.106.227 1.762.81 2.356s1.498.9 2.29.762c.565-.1 1.117-.381 1.492-.762.583-.594.81-1.25.81-2.356v-.7l.387-.138c.209-.081.54-.225.737-.325l.35-.175.375.312c.442.375.731.531 1.203.656 1.394.369 2.818-.462 3.248-1.9.123-.419.111-1.169-.031-1.581-.172-.506-.264-.662-.645-1.088l-.338-.381.178-.294c.405-.644.608-1.387.614-2.2 0-.444-.203-.819-.553-1.006L18.521 0H2.595l-.264.144zM17.068 2.1c0 .019-.178.313-.399.663-.651 1.031-.626 1.256.239 2.169.313.331.602.662.645.737.233.463-.233 1.038-.749.919-.123-.025-.393-.244-.786-.631-.786-.775-1.056-.862-1.658-.519-.694.4-1.578.806-2.008.925-.608.175-.817.306-.976.638-.129.256-.141.362-.141 1.362 0 1.231-.049 1.431-.399 1.6-.252.125-.301.125-.553 0-.35-.169-.399-.369-.399-1.6 0-1-.012-1.106-.135-1.362-.166-.325-.375-.463-.982-.638-.528-.15-1.308-.494-1.738-.775-.405-.263-.761-.362-1.044-.313-.184.037-.368.181-.86.662-.405.394-.694.625-.817.65-.51.119-.976-.463-.743-.919.043-.075.332-.406.645-.737.866-.912.89-1.138.239-2.169-.221-.35-.399-.644-.399-.663 0-.025 2.929-.038 6.508-.038s6.508.013 6.508.038zM.485 13.206c-.313.212-.485.512-.485.844 0 .225 3.119 16.925 3.229 17.275.055.194.282.425.522.55.227.125.387.125 6.809.125s6.582 0 6.809-.125c.239-.125.467-.356.522-.55.11-.35 3.229-17.05 3.229-17.275 0-.331-.172-.631-.485-.844l-.209-.144H.694l-.209.144zm18.21 2.275c-.061.5-.418 1.587-.682 2.081-1.283 2.375-3.714 3.819-6.729 3.988-2.278.131-4.206-.331-5.82-1.394a7 7 0 0 1-2.265-2.438c-.307-.544-.712-1.712-.774-2.237l-.043-.356h16.356l-.043.356zM4.39 21.919c2.634 1.775 6.569 2.244 9.885 1.169a10.688 10.688 0 0 0 3.18-1.688c.276-.219.295-.219.264-.081-.018.081-.381 1.994-.804 4.244s-.78 4.156-.798 4.231l-.031.144H5.035l-.031-.144c-.018-.075-.375-1.981-.798-4.231s-.786-4.163-.804-4.244c-.031-.137-.012-.137.264.081.16.125.491.356.724.519z" />
    </symbol>

    <symbol id="icon-logo" viewBox="0 0 127 32">
      <path fill="#fff" style="fill:var(--color2, #fff)" d="M31.36 16.32C31.36 24.98 24.483 32 16 32S.64 24.98.64 16.32 7.517.64 16 .64s15.36 7.02 15.36 15.68z" />
      <path style="fill:var(--color5, --primary-color)" d="M11.849.562C4.443 2.805 0 8.635 0 16.004c0 6.023 3.091 11.277 8.179 13.904 2.64 1.346 3.027.384.58-1.474-1.739-1.41-2.061-2.05-2.061-4.421 0-1.666-.386-3.011-.966-3.524-1.159-.961-1.288-3.46-.129-4.357.451-.384.902-1.666.966-2.819.322-4.229 4.894-8.201 9.467-8.201s9.145 3.973 9.466 8.201c.064 1.153.515 2.435.966 2.819 1.159.897 1.03 3.396-.129 4.357-.58.513-.966 1.858-.966 3.524 0 2.371-.322 3.011-2.061 4.421-2.705 2.114-1.932 2.883 1.095 1.025 4.25-2.627 7.406-8.33 7.406-13.391C31.813 5.944 21.252-2.257 11.85.562z" />
      <path style="fill:var(--color5, --primary-color)" d="M12.686 7.994c-1.159.513-2.125 1.153-2.125 1.538 0 .705 3.477 1.986 5.474 1.986s5.474-1.281 5.474-1.986c0-.769-3.993-2.499-5.603-2.499-.644.064-2.125.449-3.22.961zM45.851 11.326c-.966.256-1.159 1.089-1.159 5.703v5.382h4.572l-.193-5.574c-.193-5.831-.451-6.279-3.22-5.51zM53.386 11.646c-2.125 1.153-2.898 2.563-2.898 5.318 0 3.78 2.061 5.574 5.86 5.318 2.576-.192 2.833-.384 3.027-1.986s.064-1.73-1.932-1.602c-2.061.192-2.125.064-2.125-2.05s.129-2.243 1.996-2.05c1.546.128 2.125-.128 2.383-1.089.129-.641 0-1.538-.386-1.922-.902-.897-4.25-.897-5.925.064zM61.049 11.71c-.193.513-.258 3.011-.129 5.638l.193 4.741h4.186c3.864 0 4.186-.128 4.379-1.474.193-1.217-.064-1.41-2.06-1.41-1.288 0-2.319-.32-2.319-.641 0-.384.902-.641 1.932-.641 1.481 0 1.932-.256 1.932-1.281s-.451-1.281-1.932-1.281c-1.03 0-1.932-.32-1.932-.641 0-.384.837-.641 1.868-.641 1.804 0 3.027-1.41 2.254-2.627-.58-.961-7.985-.705-8.372.256zM73.993 11.518c-2.125.833-2.962 2.307-3.027 4.998-.065 4.613 1.803 6.215 6.633 5.767 1.868-.128 2.189-.448 2.189-1.794 0-1.41-.257-1.602-2.061-1.41-1.546.128-2.125-.064-2.447-1.089-.58-1.986.644-3.588 2.705-3.588 1.224 0 1.868-.384 1.996-1.217.451-2.05-2.833-3.011-5.989-1.666zM81.914 11.262c-.323.256-.515 2.883-.515 5.831v5.382l2.06-.192c1.61-.128 2.19-.577 2.512-1.794l.386-1.602.515 1.73c.387 1.474.837 1.794 2.512 1.794 2.769 0 3.091-.448 1.932-2.691-.708-1.41-.837-2.114-.322-2.627.837-.833.902-3.652.129-4.87-.644-1.025-8.371-1.858-9.208-.961zm5.28 3.46c0 .705-.257 1.281-.644 1.281-.322 0-.644-.577-.644-1.281s.322-1.281.644-1.281c.387 0 .644.577.644 1.281zM93.441 11.326c-.258.192-.451 2.819-.451 5.767v5.318h4.186c4.057 0 4.186-.064 4.186-1.602 0-1.346-.322-1.602-1.932-1.602-1.03 0-1.932-.32-1.932-.641 0-.384.708-.641 1.61-.641 1.159 0 1.61-.32 1.61-1.281s-.451-1.281-1.61-1.281c-.902 0-1.61-.32-1.61-.641 0-.384.902-.641 1.932-.641 1.61 0 1.932-.256 1.932-1.602 0-1.538-.193-1.602-3.735-1.602-2.061 0-3.992.192-4.186.448zM106.45 11.262c-1.16.32-4.122 8.842-3.542 10.252.515 1.281 3.413 1.153 4.186-.192.579-1.089.644-1.089 1.803 0 1.482 1.281 4.701 1.474 4.701.256 0-.384-.644-2.947-1.482-5.574-1.288-4.229-1.674-4.806-3.027-4.934-.902 0-2.061.064-2.64.192zm1.803 5.831c-.193.641-.322.256-.322-.769 0-1.089.129-1.538.322-1.153.129.448.129 1.346 0 1.922zM115.723 11.326c-.58.192-.837 1.986-.837 5.703v5.382h1.868c1.61 0 1.932-.32 2.189-1.794.257-1.666.257-1.666.772-.32.258.833.902 1.474 1.352 1.474.515 0 1.224-.641 1.546-1.474.515-1.346.58-1.346.58.384.065 1.602.257 1.794 2.061 1.602l1.996-.192.065-5.318c.129-4.934.064-5.318-1.288-5.638-2.061-.513-3.799.705-4.379 3.076l-.451 2.114-.708-2.243c-.902-3.011-2.254-3.78-4.765-2.755zM9.016 11.967c-.193.256-.386 1.089-.386 1.922 0 1.474.064 1.474 7.406 1.474s7.406 0 7.406-1.474c0-2.178-.58-2.435-2.64-1.41-2.318 1.217-7.213 1.217-9.531 0-1.03-.513-1.996-.705-2.254-.513zM7.148 17.669c-1.03 1.089.708 1.538 5.731 1.538h5.409v2.243c0 1.217.322 2.243.644 2.243.386 0 .644-.961.644-2.178 0-2.114.129-2.243 2.576-2.435 1.417-.128 2.576-.513 2.576-.833 0-.705-16.872-1.281-17.581-.577z" />
      <path style="fill:var(--color5, --primary-color)" d="M8.629 23.308c0 3.524 1.224 4.229 7.406 4.229s7.406-.705 7.406-4.229c0-1.538-.322-2.178-.966-2.178-.58 0-.966.577-.966 1.538 0 3.588-4.894 3.908-5.603.384-.322-1.858-.515-1.922-3.8-1.922H8.629v2.178zM12.622 30.548c.386 2.05 6.955 1.858 6.955-.128 0-.705-.837-.961-3.606-.961-3.027 0-3.542.192-3.349 1.089z" />
    </symbol>

    <symbol id="icon-burger" viewBox="0 0 46 32">
      <path stroke-linejoin="miter" stroke-linecap="butt" stroke-miterlimit="4" stroke-width="2.2857" d="M0 2.286h45.714"></path>
      <path stroke-linejoin="miter" stroke-linecap="butt" stroke-miterlimit="4" stroke-width="2.2857" d="M0 16h45.714"></path>
      <path stroke-linejoin="miter" stroke-linecap="butt" stroke-miterlimit="4" stroke-width="2.2857" d="M0 29.714h45.714"></path>
    </symbol>

    <symbol id="icon-arrow-right" viewBox="0 0 28 32">
<path d="M27.413 17.413l-10 10c-0.387 0.394-0.9 0.587-1.413 0.587s-1.024-0.195-1.414-0.586c-0.781-0.781-0.781-2.047 0-2.828l6.589-6.586h-19.175c-1.104 0-2-0.894-2-2s0.896-2 2-2h19.175l-6.588-6.588c-0.781-0.781-0.781-2.047 0-2.828s2.047-0.781 2.828 0l10 10c0.778 0.784 0.778 2.047-0.003 2.828z"></path>
</symbol>

    <symbol id="icon-arrow-right-btn" viewBox="0 0 22 32">
      <path fill="none" stroke-linejoin="round" stroke-linecap="round" stroke-miterlimit="4" stroke-width="6.4" d="M3.471 3.2l13.7 12.8-13.7 12.8"></path>
    </symbol>

    <symbol id="icon-menu-cross" viewBox="0 0 32 32">
      <path fill="none" stroke-linejoin="miter" stroke-linecap="butt" stroke-miterlimit="4" stroke-width="2" d="M2.518 2l26.963 28"></path>
      <path fill="none" stroke-linejoin="miter" stroke-linecap="butt" stroke-miterlimit="4" stroke-width="2" d="M2 29.481l28-26.963"></path>
    </symbol>
  </defs>
</svg>